# xmcd CD database file
# Copyright (C) 1993-1996 Ti Kan
#
# Track frame offsets:
#	183
#	12155
#	27335
#	41138
#	54758
#	69533
#	79798
#	92315
#	103413
#	114258
#	126715
#	141038
#	153230
#	167075
#	180508
#	190320
#	202540
#	217598
#	230355
#	243035
#
# Disc length: 3413 seconds
#
# Revision: 1
# Processed by: cddbd v1.4b41PL1 Copyright (c) Steve Scherf et al.
# Submitted via: CDValet v3.31 - Copyright (c) 1997 Greg Leichner
#
DISCID=f80d5314
DTITLE=James, Elmore - Brim, John - Jones, Floyd - Elmore James, 
DTITLE=John Brim, Floyd Jones
DYEAR=1900
DGENRE=
TTITLE0=Tool Bag Boogie [Elmore James]
TTITLE1=My Best Friend [Elmore James]
TTITLE2=I See My Baby [Elmore James]
TTITLE3=She Just Won't Do Right (Dust My Broom) [Elmore James]
TTITLE4=Whose Muddy Shoes [Elmore James]
TTITLE5=Talk To Me Baby (I Can't Hold Out) [Elmore James]
TTITLE6=The Sun Is Shining [Elmore James]
TTITLE7=Stromy Monday Blues (Call It Stormy Monday) [Elmore Jam
TTITLE7=es]
TTITLE8=Madison Blues [Elmore James]
TTITLE9=Ice Cream Man [John Brim]
TTITLE10=Rattlesnake [John Brim]
TTITLE11=Be Careful [John Brim]
TTITLE12=Tough Times [John Brim]
TTITLE13=You Got Me  [John Brim]
TTITLE14=Overseas [Floyd Jones]
TTITLE15=Playhouse [Floyd Jones]
TTITLE16=Dark Road [Floyd Jones]
TTITLE17=Big World [Floyd Jones]
TTITLE18=You Can't Live Long [Floyd Jones]
TTITLE19=Early Morning [Floyd Jones]
EXTD=
EXTT0=
EXTT1=
EXTT2=
EXTT3=
EXTT4=
EXTT5=
EXTT6=
EXTT7=
EXTT8=
EXTT9=
EXTT10=
EXTT11=
EXTT12=
EXTT13=
EXTT14=
EXTT15=
EXTT16=
EXTT17=
EXTT18=
EXTT19=
PLAYORDER=
